# xmcd
#
# Track frame offsets:
#	150
#	13807
#	23170
#	41192
#	52763
#	66032
#
# Disc length: 1049 seconds
#
# Revision: 1
# Processed by: cddbd v1.5.2PL0 Copyright (c) Steve Scherf et al.
# Submitted via: audiograbber 1.83.01
#
DISCID=46041706
DTITLE=die Kunze Kapelle - chilling me softly
DYEAR=2008
DGENRE=Swing, Pop und Schlager
TTITLE0=die Kunze Kapelle - Ich freu mich auf den Sommer!
TTITLE1=die Kunze Kapelle - Drei Chinesen Yeah Yeah ...
TTITLE2=die Kunze Kapelle - Das Model und Teil 2
TTITLE3=die Kunze Kapelle - Komm wir fahren ans Meer ...
TTITLE4=die Kunze Kapelle - Der Mann vom Ordnungsamt
TTITLE5=die Kunze Kapelle - Mexico
EXTD=
EXTT0=
EXTT1=
EXTT2=
EXTT3=
EXTT4=
EXTT5=
PLAYORDER=
